<svg xmlns="http://www.w3.org/2000/svg" data-name="Layer 1" viewBox="0 0 512 512"><path fill="#f0f0f2" d="M450.31586,7.5l-30,70v397a29.99808,29.99808,0,0,1-30,30h-329l30-54.29V37.5a29.99824,29.99824,0,0,1,30-30Z"/><path fill="#dadadc" d="M356.31413,434.5H28.314v40a30,30,0,0,0,30,30h333"/><path fill="#f0f0f2" d="M357.31414,434.5V473a31.5,31.5,0,0,0,31.5,31.5h.00006a31.5,31.5,0,0,0,31.5-31.5V434.5"/><path fill="#dadadc" d="M452,7.5h.00006A31.68589,31.68589,0,0,1,483.686,39.18589V77.5a0,0,0,0,1,0,0H420.31414a0,0,0,0,1,0,0V39.18589A31.68589,31.68589,0,0,1,452,7.5Z"/><rect width="236.25" height="51" x="138.25" y="52.5" fill="#dadadc" rx="15"/><path fill="#fff" d="M333.39875,283.31793c2.36554,7.73736-8.31853,17.21381-8.451,24.8885-.13729,7.954,10.12288,17.80729,7.581,25.17014-2.56729,7.43642-16.755,8.87027-21.48448,15.157-4.68268,6.22444-2.11841,20.2734-8.63576,24.83494-6.28845,4.40132-18.55964-2.749-26.29684-.38346-7.73736,2.36554-13.91244,15.15534-21.58713,15.02288-7.954-.13729-13.68422-13.2184-21.04706-15.76029-7.43642-2.56729-20.0004,4.1775-26.28712-.552-6.22444-4.68267-3.228-18.58871-7.78959-25.10607-4.40133-6.28844-18.55792-8.17025-20.92341-15.90745-2.36555-7.73736,8.31852-17.21381,8.451-24.8885.13729-7.954-10.12288-17.80729-7.581-25.17014,2.56729-7.43642,16.75495-8.87027,21.48448-15.157,4.68267-6.22444,2.11841-20.2734,8.63576-24.83494,6.28845-4.40132,18.55963,2.749,26.29684.38346s13.91244-15.15534,21.58713-15.02288c7.954.13729,13.68422,13.2184,21.04706,15.76029,7.43642,2.56729,20.0004-4.1775,26.28712.552,6.22444,4.68267,3.228,18.58871,7.78959,25.10607C316.87666,273.69892,331.03325,275.58073,333.39875,283.31793Z"/><path fill="#e1e1e3" d="M333.39868,283.31787c-2.36548-7.73718-16.522-9.6189-20.92334-15.90747-4.56152-6.51733-1.56518-20.42334-7.78955-25.106-6.28674-4.72961-18.85083,2.01514-26.28711-.552-7.36291-2.542-13.093-15.62305-21.04712-15.76037-5.52905-.09534-10.27978,6.51538-15.39709,11.10412,2.06848,2.09326,4.179-11.12585,6.44421-10.34375,7.43628,2.56714,20.00037,10.82239,26.28711,15.552,6.22437,4.68262,3.228,18.58863,7.78955,25.106,4.40137,6.28857,18.55786,8.17029,20.92334,15.90747,2.3656,7.73743-8.31848,17.21387-8.45093,24.88855-.1372,7.954,10.12281,17.80725,7.58106,25.17-2.56738,7.43653-16.755,8.87037-21.48462,15.15711-4.68262,6.22449-2.11841,20.27331-8.63574,24.83484-6.28833,4.40137-18.55957,12.2511-26.29676,14.6167-2.1632.66137-4.2041-12.86206-6.19006-11.0813,4.65479,4.71069,9.096,11.009,14.60291,11.104,7.67468.13257,13.84973-12.65722,21.58715-15.0227,7.73719-2.3656,20.00843,4.78467,26.29676.3833,6.51733-4.56153,3.95312-18.61035,8.63574-24.83484,4.72961-6.28674,18.91724-7.72058,21.48462-15.15711,2.54175-7.36279-7.71826-17.21606-7.58106-25.17C325.0802,300.53174,335.76428,291.0553,333.39868,283.31787Z"/><path fill="#52bbe9" d="M254.65918,395.50879c-.08838,0-.17578-.001-.26465-.00195-7.63379-.13184-12.9624-5.93848-17.24463-10.6045-1.95752-2.13281-4.63818-5.05371-6.11914-5.56445-1.53711-.53027-5.4956.12109-8.38623.59668-6.20557,1.02246-13.92871,2.29395-19.96289-2.24609-5.98779-4.50391-6.90088-12.23731-7.63428-18.45118-.36572-3.10156-.82129-6.96191-1.79052-8.34668-.85108-1.21582-4.33594-2.9541-6.88038-4.22363-5.70654-2.84668-12.8081-6.38965-15.07128-13.793-2.26319-7.40234,1.64306-14.31152,4.78222-19.8623,1.3999-2.47559,3.31641-5.86426,3.3418-7.34668.0293-1.69141-1.75147-5.14649-3.18262-7.92285-2.86621-5.56153-6.43359-12.4834-3.98877-19.56641,2.46436-7.13769,9.57862-10.40234,15.29492-13.02441,2.6626-1.22168,6.30909-2.89453,7.28614-4.19336.94189-1.252,1.53076-5.17285,1.96093-8.03613.94092-6.2627,2.11182-14.05665,8.36768-18.43458,6.05811-4.24023,13.30908-2.79589,19.70752-1.51757,3.11377.62109,6.98926,1.3916,8.69629.873,1.70605-.52148,4.4873-3.33007,6.72168-5.58691,4.53515-4.58008,9.66943-9.76465,16.92383-9.76465.08789,0,.17578.001.26465.00195,7.63378.13184,12.96289,5.93848,17.24511,10.6045,1.957,2.13281,4.6377,5.05371,6.11914,5.56445,1.53418.53027,5.49512-.12109,8.38575-.59668,6.20605-1.02148,13.93066-2.293,19.96289,2.24609,5.98828,4.50391,6.90039,12.23731,7.63476,18.45118.36524,3.10156.82129,6.96191,1.791,8.34668.85058,1.21582,4.335,2.9541,6.87988,4.22363,5.70605,2.84668,12.80664,6.38965,15.07031,13.792h0c2.26465,7.40332-1.64258,14.3125-4.78125,19.86328-1.39941,2.47461-3.3164,5.86426-3.34179,7.34668-.0293,1.69141,1.751,5.14649,3.18261,7.92383,2.86621,5.56152,6.43262,12.48242,3.98828,19.56543-2.46386,7.13769-9.57812,10.40234-15.29492,13.02441-2.66308,1.22168-6.30859,2.89453-7.28613,4.19336-.94238,1.252-1.53125,5.17285-1.96094,8.03613-.9414,6.2627-2.1123,14.05665-8.36719,18.43458-6.05859,4.24121-13.30957,2.79492-19.708,1.51757-3.11426-.62109-6.98926-1.3916-8.69629-.873-1.70606.52148-4.48731,3.33007-6.72168,5.58691C267.04785,390.32422,261.91309,395.50879,254.65918,395.50879Z"/><path fill="#1cabe1" d="M332.44727,308.335c.02539-1.48242,1.94238-4.87207,3.34179-7.34668,3.13867-5.55078,7.0459-12.46,4.78125-19.86328-2.26367-7.40234-9.36426-10.94531-15.07031-13.792-2.54492-1.26953-6.0293-3.00781-6.87988-4.22363-.96973-1.38477-1.42578-5.24512-1.791-8.34668-.73437-6.21387-1.64648-13.94727-7.63476-18.45118-6.03223-4.53906-13.75684-3.26757-19.96289-2.24609-2.89063.47559-6.85157,1.127-8.38575.59668-1.48144-.51074-4.16211-3.43164-6.11914-5.56445-4.28222-4.666-9.61133-10.47266-17.24511-10.6045-.08887-.001-.17676-.00195-.26465-.00195-6.27076,0-10.95594,3.87427-15.04077,7.88306.89306.918,1.74072,1.84106,2.55053,2.72339,1.957,2.13281,4.6377,5.05371,6.11914,5.56445,1.53418.53027,5.49512-.12109,8.38575-.59668,6.20605-1.02148,13.93066-2.293,19.96289,2.24609,5.98828,4.50391,6.90039,12.23731,7.63476,18.45118.36524,3.10156.82129,6.96191,1.791,8.34668.85058,1.21582,4.335,2.9541,6.87988,4.22363,5.70605,2.84668,12.80664,6.38965,15.07031,13.792,2.26465,7.40332-1.64258,14.3125-4.78125,19.86328-1.39941,2.47461-3.3164,5.86426-3.34179,7.34668-.0293,1.69141,1.751,5.14649,3.18261,7.92383,2.86621,5.56152,6.43262,12.48242,3.98828,19.56543-2.46386,7.13769-9.57812,10.40234-15.29492,13.02441-2.66308,1.22168-6.30859,2.89453-7.28613,4.19336-.94238,1.252-1.53125,5.17285-1.96094,8.03613-.9414,6.2627-2.1123,14.05665-8.36719,18.43458-6.05859,4.24121-13.30957,2.79492-19.708,1.51757-3.11426-.62109-6.98926-1.3916-8.69629-.873-1.70606.52148-4.48731,3.33007-6.72168,5.58691-.61487.621-1.24207,1.25256-1.88281,1.88135,3.82983,3.93579,8.504,7.77441,14.69433,7.88135.08887.001.17627.00195.26465.00195,7.25391,0,12.38867-5.18457,16.92383-9.76465,2.23437-2.25684,5.01562-5.06543,6.72168-5.58691,1.707-.51856,5.582.25195,8.69629.873,6.39843,1.27735,13.64941,2.72364,19.708-1.51757,6.25489-4.37793,7.42579-12.17188,8.36719-18.43458.42969-2.86328,1.01856-6.78417,1.96094-8.03613.97754-1.29883,4.62305-2.97168,7.28613-4.19336,5.7168-2.62207,12.83106-5.88672,15.29492-13.02441,2.44434-7.083-1.12207-14.00391-3.98828-19.56543C334.19824,313.48145,332.418,310.02637,332.44727,308.335Z"/><path fill="#fff" d="M244.56055,333.20312a7.47825,7.47825,0,0,1-5.30323-2.19628l-14.65185-14.65137a7.50023,7.50023,0,0,1,10.60644-10.60742l9.34864,9.34863L276.665,282.99316a7.50024,7.50024,0,1,1,10.60644,10.60743l-37.40771,37.40625A7.47824,7.47824,0,0,1,244.56055,333.20312Z"/><path fill="#dadadc" d="M375.31445 156H136.562a7.5 7.5 0 0 1 0-15H375.31445a7.5 7.5 0 1 1 0 15zM375.31445 201H136.562a7.5 7.5 0 0 1 0-15H375.31445a7.5 7.5 0 1 1 0 15z"/></svg>