<svg xmlns="http://www.w3.org/2000/svg" data-name="Layer 1" viewBox="0 0 512 512"><path fill="#f0f0f2" d="M471.37988,7.5,441.38,77.5v397a29.99816,29.99816,0,0,1-30,30h-329l30-54.29V37.5a29.99817,29.99817,0,0,1,30-30Z"/><path fill="#dadadc" d="M377.37816,434.5H49.37805v40a30,30,0,0,0,30,30h333"/><path fill="#f0f0f2" d="M378.37817,434.5V473a31.5,31.5,0,0,0,31.5,31.5h.00007a31.5,31.5,0,0,0,31.5-31.5V434.5"/><path fill="#dadadc" d="M473.06405 7.5h.00006A31.68589 31.68589 0 0 1 504.75 39.18589V77.5a0 0 0 0 1 0 0H441.37817a0 0 0 0 1 0 0V39.18589A31.68589 31.68589 0 0 1 473.06405 7.5zM367.06445 175H157.37793a7.5 7.5 0 0 1 0-15H367.06445a7.5 7.5 0 1 1 0 15zM330.25 220H157.37793a7.5 7.5 0 0 1 0-15H330.25a7.5 7.5 0 0 1 0 15zM316.52441 265H199.25a7.5 7.5 0 0 1 0-15H316.52441a7.5 7.5 0 0 1 0 15zM330.25 310h-128a7.5 7.5 0 0 1 0-15h128a7.5 7.5 0 0 1 0 15zM367.06445 355H187.064a7.5 7.5 0 1 1 0-15H367.06445a7.5 7.5 0 1 1 0 15zM397.06445 400H247.064a7.5 7.5 0 1 1 0-15H397.06445a7.5 7.5 0 1 1 0 15z"/><path fill="#24b378" d="M397.06445 60h-47.248a7.5 7.5 0 0 1 0-15h47.248a7.5 7.5 0 0 1 0 15zM397.06445 85.77148h-47.248a7.5 7.5 0 0 1 0-15h47.248a7.5 7.5 0 0 1 0 15z"/><path fill="#24b378" d="M384.17969,147.519a7.47761,7.47761,0,0,1-5.42481-2.31982l-34.3623-35.97608A7.50029,7.50029,0,0,1,349.81641,96.543h8.59082a18.27148,18.27148,0,0,0,0-36.543h-8.59082a7.5,7.5,0,0,1,0-15h8.59082a33.27381,33.27381,0,0,1,8.01269,65.56787l23.18262,24.271a7.5,7.5,0,0,1-5.42285,12.68017Z"/><rect width="166.066" height="75" x="153.75" y="52.5" fill="#dadadc" rx="10"/><path fill="#e1e1e3" d="M441.38,161.57V350.43c-1.20007.05-2.41.07-3.63.07a94.5,94.5,0,0,1,0-189C438.97,161.5,440.17993,161.52,441.38,161.57Z"/><circle cx="437.75" cy="256" r="67" fill="#fff"/><path fill="#e1e1e3" d="M437.75,189a67.33112,67.33112,0,0,0-11.72729,1.04413,66.98832,66.98832,0,0,1,0,131.91174A66.99553,66.99553,0,1,0,437.75,189Z"/><path fill="#24b378" d="M437.75,330.5a74.5,74.5,0,1,1,74.5-74.5A74.5845,74.5845,0,0,1,437.75,330.5Z"/><path fill="#19ac66" d="M437.75,181.5a74.55349,74.55349,0,0,0-15,1.5174,74.51017,74.51017,0,0,1,0,145.9652,74.50372,74.50372,0,1,0,15-147.4826Z"/><path fill="#f0f0f2" d="M426.37305,282.20361a7.50112,7.50112,0,0,1-5.30371-2.19677L406.417,265.35449a7.50023,7.50023,0,1,1,10.60742-10.60644l9.34864,9.34912,32.10254-32.104A7.50024,7.50024,0,1,1,469.083,242.59961l-37.40625,37.40723A7.50116,7.50116,0,0,1,426.37305,282.20361Z"/><path fill="#f69531" d="M224.9,479.42a25.00079,25.00079,0,0,1-25,25.08H32.9a24.99855,24.99855,0,0,1-25-24.92l-.15-48.13a34.97967,34.97967,0,0,1,23.59009-33.08l39.81982-13.74a34.85319,34.85319,0,0,0,14.42017-9.47C91.35,368.85,109.75,360.5,109.75,351.55l-15-25.05h43l-15,25.05c0,8.57,18.12,16.6,23.45,22.8a34.80776,34.80776,0,0,0,15.14014,10.28l39.81982,13.74A34.97967,34.97967,0,0,1,224.75,431.45Z"/><path fill="#f48a31" d="M224.75,431.45a34.97967,34.97967,0,0,0-23.59009-33.08l-39.81982-13.74A34.80776,34.80776,0,0,1,146.2,374.35C140.87,368.15,122.75,360.12,122.75,351.55l15-25.05h-15l-14,23.38,1,1.67a8.026,8.026,0,0,1-.967,3.64251c3.9021,7.18818,17.84985,13.84491,22.417,19.15748a34.80776,34.80776,0,0,0,15.14014,10.28l39.81982,13.74A34.97967,34.97967,0,0,1,209.75,431.45l.15,47.97a25.00079,25.00079,0,0,1-25,25.08h15a25.00079,25.00079,0,0,0,25-25.08Z"/><path fill="#fdd8ae" d="M146.2,374.35,144.62,376.17a45.92133,45.92133,0,0,1-25.98,9.97,44.94374,44.94374,0,0,1-16.522-2.231,46.20633,46.20633,0,0,1-8.14322-3.70845c-2.59668-1.46566-5.04229-3.184-7.64539-4.6324q-.37284-.20747-.74936-.40822A34.943,34.943,0,0,0,94.75,351.55V326.5h43v25.05A34.942,34.942,0,0,0,146.2,374.35Z"/><path fill="#fbbf7d" d="M137.75,351.55V326.5h-15v25.05a34.942,34.942,0,0,0,8.45,22.8L129.62,376.17a46.24631,46.24631,0,0,1-20.84668,9.388,44.53837,44.53837,0,0,0,9.86669.582,45.92133,45.92133,0,0,0,25.98-9.97L146.2,374.35A34.942,34.942,0,0,1,137.75,351.55Z"/><path fill="#fdd8ae" d="M147.25,263.5l15,15.66V310.5a46,46,0,0,1-92,0V294.16l15-30.66c0-14.36-3.36-11,11-11h40C150.61,252.5,147.25,249.14,147.25,263.5Z"/><path fill="#fbbf7d" d="M147.25 263.5v47a45.99785 45.99785 0 0 1-38.5 45.382 45.98631 45.98631 0 0 0 53.5-45.382V279.16zM96.25 252.5c-6.85474 0-9.66724-.7616-10.7395 0zM138.77832 252.46448c5.20532.796 8.47168 3.42975 8.47168 11.03552C147.25 250.0531 150.1947 252.14417 138.77832 252.46448z"/><path fill="#787681" d="M162.25,263.5v15.66l-53.48-13.15a13.99684,13.99684,0,0,0-13.08008,3.53L70.25,294.16V263.5a25.99925,25.99925,0,0,1,26-26h40A25.99925,25.99925,0,0,1,162.25,263.5Z"/><path fill="#57565c" d="M136.25,237.5h-15a25.99925,25.99925,0,0,1,26,26v11.97168l15,3.68829V263.5A25.99925,25.99925,0,0,0,136.25,237.5Z"/><path fill="#f48a31" d="M189.75 468.01V504.5h-15V468.01a7.5 7.5 0 1 1 15 0zM56.75 468.01V504.5h-15V468.01a7.5 7.5 0 1 1 15 0z"/><circle cx="116.074" cy="416" r="7.5" fill="#fed947"/><circle cx="116.074" cy="446" r="7.5" fill="#fed947"/><circle cx="116.074" cy="476" r="7.5" fill="#fed947"/></svg>